<svg xmlns="http://www.w3.org/2000/svg" viewBox="0 0 128 160">
  <defs>
    <linearGradient id="sgi-red" x1="0" y1="0" x2="0" y2="1">
      <stop offset="0%" stop-color="#f87171" />
      <stop offset="100%" stop-color="#b91c1c" />
    </linearGradient>
  </defs>
  <path d="M64 8l48 18v58c0 30.4-19.2 57.3-48 64-28.8-6.7-48-33.6-48-64V26z" fill="url(#sgi-red)" stroke="#fee2e2" stroke-width="4" stroke-linejoin="round" />
  <path d="M70 34c-6.6 0-12 5.4-12 12 0 3.7 1.7 7.1 4.5 9.3-11.2 2.5-19.5 12.5-19.5 24.6 0 13.9 11.3 25.2 25.2 25.2 6.8 0 13-2.7 17.6-7.2-2.2 7.8-8.1 14.3-16 17.6l5.2 19.5H48L58 119c-12-5-20.2-16.8-20.2-30.1 0-13.6 8.8-25.5 21.5-29.6-3.3-3.5-5.3-8.2-5.3-13.3 0-10.4 8.4-18.8 18.8-18.8 5.4 0 10.2 2.3 13.6 6l9.6-6.2-3.6 15 12.6 5.8-15.4 4.2 2 12.2-9-6.2-6 9.4-4.4-16-6.3 4.4 7.6-23.2c-1.2-.5-2.4-.8-3.7-.8z" fill="#fee2e2" />
</svg>
