<svg xmlns="http://www.w3.org/2000/svg" viewBox="0 0 128 160">
  <defs>
    <linearGradient id="wf-gradient" x1="0" y1="0" x2="0" y2="1">
      <stop offset="0%" stop-color="#5b21b6" />
      <stop offset="100%" stop-color="#2e1065" />
    </linearGradient>
  </defs>
  <path d="M64 6l48 20v54c0 30.2-18.7 56.7-48 64-29.3-7.3-48-33.8-48-64V26z" fill="url(#wf-gradient)" stroke="#f4f4ff" stroke-width="4" stroke-linejoin="round" />
  <path d="M64 38c-13 0-24 11-24 24 0 11.2 6.9 20.6 16.6 23.7-6.4 2.8-11.4 7.8-14 14.3-2.2 5.4-3.3 11.3-3.3 17.1h52.4c0-5.8-1.1-11.7-3.3-17.1-2.6-6.5-7.6-11.5-14-14.3 9.7-3.1 16.6-12.5 16.6-23.7 0-13-11-24-24-24zm-8 24c0-4.4 3.6-8 8-8s8 3.6 8 8-3.6 8-8 8-8-3.6-8-8z" fill="#f6f6ff" />
  <rect x="58" y="100" width="12" height="34" rx="6" fill="#f6f6ff" />
  <circle cx="64" cy="138" r="10" fill="#f6f6ff" />
</svg>
