<?xml version="1.0" encoding="UTF-8"?>
<svg xmlns="http://www.w3.org/2000/svg" viewBox="0 0 64 64" width="64" height="64" role="img" aria-label="Rugby League Central favicon">
  <rect width="64" height="64" rx="12" fill="#050505" />
  <path d="M8 6h48c4 0 7 3 7 7v27c0 25-18 36-31 42-13-6-31-17-31-42V13c0-4 3-7 7-7Z" fill="#ffffff" />
  <ellipse cx="32" cy="28" rx="20" ry="14" fill="#050505" />
  <path d="M15 22c12 8 22 8 34 0" stroke="#ffffff" stroke-width="3" stroke-linecap="round" />
  <path d="M15 34c12-8 22-8 34 0" stroke="#ffffff" stroke-width="3" stroke-linecap="round" />
  <rect x="27" y="26" width="10" height="6" rx="3" fill="#ffffff" />
  <circle cx="24.5" cy="28" r="2" fill="#ffffff" />
  <circle cx="39.5" cy="28" r="2" fill="#ffffff" />
  <path d="M26 20c9-6 16-6 22 0" stroke="#ffffff" stroke-width="3" stroke-linecap="round" />
</svg>
